%TF.GenerationSoftware,KiCad,Pcbnew,9.0.2+dfsg-1*%
%TF.CreationDate,2026-09-20T13:21:28+08:00*%
%TF.ProjectId,pc-volume-controller,70632d76-6f6c-4756-9d65-2d636f6e7472,rev?*%
%TF.SameCoordinates,Original*%
%TF.FileFunction,Soldermask,Bot*%
%TF.FilePolarity,Negative*%
%FSLAX46Y46*%
G04 Gerber Fmt 4.6, Leading zero omitted, Abs format (unit mm)*
G04 Created by KiCad (PCBNEW 9.0.2+dfsg-1) date 2026-09-20 13:21:28*
%MOMM*%
%LPD*%
G01*
G04 APERTURE LIST*
%ADD10C,3.200000*%
%ADD11O,3.240000X2.720000*%
%ADD12R,1.800000X1.800000*%
%ADD13C,1.800000*%
%ADD14R,1.600000X1.600000*%
%ADD15O,1.600000X1.600000*%
G04 APERTURE END LIST*
D10*
%TO.C,H4*%
X93000000Y-48000000D03*
%TD*%
D11*
%TO.C,RV1*%
X16390000Y-10700000D03*
X16390000Y-20300000D03*
D12*
X8890000Y-13000000D03*
D13*
X8890000Y-15500000D03*
X8890000Y-18000000D03*
%TD*%
D11*
%TO.C,RV2*%
X34170000Y-10700000D03*
X34170000Y-20300000D03*
D12*
X26670000Y-13000000D03*
D13*
X26670000Y-15500000D03*
X26670000Y-18000000D03*
%TD*%
D10*
%TO.C,H2*%
X93000000Y-5000000D03*
%TD*%
%TO.C,H1*%
X5000000Y-5000000D03*
%TD*%
D11*
%TO.C,RV3*%
X51950000Y-10700000D03*
X51950000Y-20300000D03*
D12*
X44450000Y-13000000D03*
D13*
X44450000Y-15500000D03*
X44450000Y-18000000D03*
%TD*%
D11*
%TO.C,RV5*%
X87510000Y-10700000D03*
X87510000Y-20300000D03*
D12*
X80010000Y-13000000D03*
D13*
X80010000Y-15500000D03*
X80010000Y-18000000D03*
%TD*%
D10*
%TO.C,H3*%
X5000000Y-48000000D03*
%TD*%
D11*
%TO.C,RV4*%
X69730000Y-10700000D03*
X69730000Y-20300000D03*
D12*
X62230000Y-13000000D03*
D13*
X62230000Y-15500000D03*
X62230000Y-18000000D03*
%TD*%
D14*
%TO.C,U1*%
X5080000Y-42000000D03*
D15*
X7620000Y-42000000D03*
X10160000Y-42000000D03*
X12700000Y-42000000D03*
X15240000Y-42000000D03*
X17780000Y-42000000D03*
X20320000Y-42000000D03*
X22860000Y-42000000D03*
X25400000Y-42000000D03*
X27940000Y-42000000D03*
X30480000Y-42000000D03*
X33020000Y-42000000D03*
X35560000Y-42000000D03*
X38100000Y-42000000D03*
X40640000Y-42000000D03*
X40640000Y-26760000D03*
X38100000Y-26760000D03*
X35560000Y-26760000D03*
X33020000Y-26760000D03*
X30480000Y-26760000D03*
X27940000Y-26760000D03*
X25400000Y-26760000D03*
X22860000Y-26760000D03*
X20320000Y-26760000D03*
X17780000Y-26760000D03*
X15240000Y-26760000D03*
X12700000Y-26760000D03*
X10160000Y-26760000D03*
X7620000Y-26760000D03*
X5080000Y-26760000D03*
%TD*%
M02*
