M48
; DRILL file {KiCad 9.0.2+dfsg-1} date 2026-09-20T12:02:21+0800
; FORMAT={-:-/ absolute / metric / decimal}
; #@! TF.CreationDate,2026-09-20T12:02:21+08:00
; #@! TF.GenerationSoftware,Kicad,Pcbnew,9.0.2+dfsg-1
; #@! TF.FileFunction,Plated,1,2,PTH
FMAT,2
METRIC
; #@! TA.AperFunction,Plated,PTH,ViaDrill
T1C0.400
; #@! TA.AperFunction,Plated,PTH,ComponentDrill
T2C1.000
; #@! TA.AperFunction,Plated,PTH,ComponentDrill
T3C1.100
%
G90
G05
T1
X3.55Y-23.5
X11.43Y-23.5
X22.86Y-36.0
X25.4Y-34.0
X27.94Y-32.0
X29.21Y-23.5
X30.48Y-28.0
X33.02Y-30.0
X46.99Y-23.5
X64.77Y-23.5
X82.55Y-23.5
T2
X5.08Y-26.76
X5.08Y-42.0
X7.62Y-26.76
X7.62Y-42.0
X8.89Y-13.0
X8.89Y-15.5
X8.89Y-18.0
X10.16Y-26.76
X10.16Y-42.0
X12.7Y-26.76
X12.7Y-42.0
X15.24Y-26.76
X15.24Y-42.0
X17.78Y-26.76
X17.78Y-42.0
X20.32Y-26.76
X20.32Y-42.0
X22.86Y-26.76
X22.86Y-42.0
X25.4Y-26.76
X25.4Y-42.0
X26.67Y-13.0
X26.67Y-15.5
X26.67Y-18.0
X27.94Y-26.76
X27.94Y-42.0
X30.48Y-26.76
X30.48Y-42.0
X33.02Y-26.76
X33.02Y-42.0
X35.56Y-26.76
X35.56Y-42.0
X38.1Y-26.76
X38.1Y-42.0
X40.64Y-26.76
X40.64Y-42.0
X44.45Y-13.0
X44.45Y-15.5
X44.45Y-18.0
X62.23Y-13.0
X62.23Y-15.5
X62.23Y-18.0
X80.01Y-13.0
X80.01Y-15.5
X80.01Y-18.0
T3
X16.04Y-10.7G85X16.74Y-10.7
G05
X16.04Y-20.3G85X16.74Y-20.3
G05
X33.82Y-10.7G85X34.52Y-10.7
G05
X33.82Y-20.3G85X34.52Y-20.3
G05
X51.6Y-10.7G85X52.3Y-10.7
G05
X51.6Y-20.3G85X52.3Y-20.3
G05
X69.38Y-10.7G85X70.08Y-10.7
G05
X69.38Y-20.3G85X70.08Y-20.3
G05
X87.16Y-10.7G85X87.86Y-10.7
G05
X87.16Y-20.3G85X87.86Y-20.3
G05
M30
